<?xml version="1.0" encoding="UTF-8" standalone="no"?>
<!-- Created with Inkscape (http://www.inkscape.org/) -->

<svg
   xmlns:dc="http://purl.org/dc/elements/1.1/"
   xmlns:cc="http://creativecommons.org/ns#"
   xmlns:rdf="http://www.w3.org/1999/02/22-rdf-syntax-ns#"
   xmlns:svg="http://www.w3.org/2000/svg"
   xmlns="http://www.w3.org/2000/svg"
   xmlns:sodipodi="http://sodipodi.sourceforge.net/DTD/sodipodi-0.dtd"
   xmlns:inkscape="http://www.inkscape.org/namespaces/inkscape"
   id="svg2"
   version="1.1"
   inkscape:version="0.92.2 5c3e80d, 2017-08-06"
   xml:space="preserve"
   width="119.21217"
   height="123.32625"
   viewBox="0 0 119.21217 123.32625"
   sodipodi:docname="logo.svg"
   inkscape:export-filename="/home/m/CloudStation/home/Projekte/Ausgaben/logo.png"
   inkscape:export-xdpi="300.21429"
   inkscape:export-ydpi="300.21429"><metadata
     id="metadata8"><rdf:RDF><cc:Work
         rdf:about=""><dc:format>image/svg+xml</dc:format><dc:type
           rdf:resource="http://purl.org/dc/dcmitype/StillImage" /><dc:title></dc:title></cc:Work></rdf:RDF></metadata><defs
     id="defs6"><linearGradient
       x1="0"
       y1="0"
       x2="1"
       y2="0"
       gradientUnits="userSpaceOnUse"
       gradientTransform="matrix(0,94.546036,94.546036,0,306.17383,369.17676)"
       spreadMethod="pad"
       id="linearGradient64"><stop
         style="stop-opacity:1;stop-color:#4f4c4d"
         offset="0"
         id="stop66" /><stop
         style="stop-opacity:1;stop-color:#918f90"
         offset="1"
         id="stop68" /></linearGradient><linearGradient
       x1="0"
       y1="0"
       x2="1"
       y2="0"
       gradientUnits="userSpaceOnUse"
       gradientTransform="matrix(0,66.774734,66.774734,0,306.17432,397.60059)"
       spreadMethod="pad"
       id="linearGradient86"><stop
         style="stop-opacity:1;stop-color:#730fc0"
         offset="0"
         id="stop88" /><stop
         style="stop-opacity:1;stop-color:#ee27f5"
         offset="1"
         id="stop90" /></linearGradient></defs><sodipodi:namedview
     pagecolor="#ffffff"
     bordercolor="#666666"
     borderopacity="1"
     objecttolerance="10"
     gridtolerance="10"
     guidetolerance="10"
     inkscape:pageopacity="0"
     inkscape:pageshadow="2"
     inkscape:window-width="3440"
     inkscape:window-height="1379"
     id="namedview4"
     showgrid="false"
     inkscape:zoom="2.6970053"
     inkscape:cx="51.897392"
     inkscape:cy="44.864138"
     inkscape:window-x="0"
     inkscape:window-y="0"
     inkscape:window-maximized="1"
     inkscape:current-layer="g10"
     fit-margin-top="0"
     fit-margin-left="0"
     fit-margin-right="0"
     fit-margin-bottom="0" /><g
     id="g10"
     inkscape:groupmode="layer"
     inkscape:label="letter-a-shield-logo"
     transform="matrix(1.25,0,0,-1.25,-333.50452,587.43687)"><g
       id="g4315"
       transform="translate(8.3151332,6.6695)"><path
         inkscape:connector-curvature="0"
         id="path50"
         style="fill:#d3d2d2;fill-opacity:1;fill-rule:evenodd;stroke:none"
         d="m 338.214,364.619 h -64.09 l -14.485,4.703 c -3.156,1.026 0.333,2.158 8.601,2.792 l 37.93,2.909 37.944,-2.91 c 8.258,-0.634 11.75,-1.766 8.594,-2.791 z" /><path
         inkscape:connector-curvature="0"
         id="path70"
         style="fill:url(#linearGradient64);fill-rule:evenodd;stroke:none"
         d="m 338.214,364.619 h -64.09 l -14.485,44.595 c -3.156,9.723 0.333,20.467 8.601,26.476 l 37.93,27.59 37.944,-27.597 c 8.258,-6.013 11.75,-16.753 8.594,-26.472 z" /><path
         inkscape:connector-curvature="0"
         id="path72"
         style="fill:#ffffff;fill-opacity:1;fill-rule:evenodd;stroke:none"
         d="m 311.935,373.247 h -31.54 l -12.549,38.63 c -2.018,6.217 0.183,12.994 5.469,16.836 l 32.855,23.897 32.866,-23.901 c 5.278,-3.845 7.484,-10.622 5.465,-16.832 l -12.555,-38.63 z" /><path
         inkscape:connector-curvature="0"
         id="path92"
         style="fill:url(#linearGradient86);fill-rule:evenodd;stroke:none"
         d="m 306.17,441.941 -27.78,-20.205 c -2.292,-1.669 -3.213,-4.495 -2.337,-7.191 l 10.613,-32.67 h 16.64 v 18.789 h 2.866 v 12.708 h -2.866 v 6.021 h 2.866 v 22.546 z m 0.002,-41.277 h 2.866 v -18.789 h 16.64 l 10.617,32.67 c 0.876,2.692 -0.049,5.522 -2.338,7.191 l -27.785,20.203 v -22.546 h 2.866 v -6.021 h -2.866 z" /></g></g></svg>